kinderhugel-grotesk-bold.ufo
<glyph name="period" format="2">
	<unicode hex="002E"/>
	<advance width="240"/>
	<outline>
		<contour>
			<point x="56" y="0"/>
			<point x="56" y="0"/>
			<point x="72" y="0" type="curve"/>
			<point x="168" y="0" type="line"/>
			<point x="184" y="0"/>
			<point x="184" y="0"/>
			<point x="184" y="16" type="curve"/>
			<point x="184" y="112" type="line"/>
			<point x="184" y="128"/>
			<point x="184" y="128"/>
			<point x="168" y="128" type="curve"/>
			<point x="72" y="128" type="line"/>
			<point x="56" y="128"/>
			<point x="56" y="128"/>
			<point x="56" y="112" type="curve"/>
			<point x="56" y="16" type="line"/>
		</contour>
	</outline>
</glyph>
<glyph name="zero" format="2">
	<unicode hex="0030"/>
	<advance width="712"/>
	<outline>
		<contour>
			<point x="356" y="-16" type="curve"/>
			<point x="508" y="-16"/>
			<point x="664" y="80"/>
			<point x="664" y="372" type="curve"/>
			<point x="664" y="664"/>
			<point x="508" y="760"/>
			<point x="356" y="760" type="curve"/>
			<point x="204" y="760"/>
			<point x="48" y="664"/>
			<point x="48" y="372" type="curve"/>
			<point x="48" y="80"/>
			<point x="204" y="-16"/>
		</contour>
		<contour>
			<point x="356" y="128" type="curve"/>
			<point x="276" y="128"/>
			<point x="220" y="208"/>
			<point x="220" y="372" type="curve"/>
			<point x="220" y="536"/>
			<point x="276" y="616"/>
			<point x="356" y="616" type="curve"/>
			<point x="436" y="616"/>
			<point x="492" y="536"/>
			<point x="492" y="372" type="curve"/>
			<point x="492" y="208"/>
			<point x="436" y="128"/>
		</contour>
	</outline>
</glyph>
<glyph name="four" format="2">
	<unicode hex="0034"/>
	<advance width="670"/>
	<outline>
		<contour>
			<point x="428" y="0"/>
			<point x="428" y="0"/>
			<point x="444" y="0" type="curve"/>
			<point x="588" y="0" type="line"/>
			<point x="604" y="0"/>
			<point x="604" y="0"/>
			<point x="604" y="16" type="curve"/>
			<point x="604" y="150" type="line"/>
			<point x="604" y="158"/>
			<point x="604" y="158"/>
			<point x="612" y="158" type="curve"/>
			<point x="646" y="158" type="line"/>
			<point x="662" y="158"/>
			<point x="662" y="158"/>
			<point x="662" y="174" type="curve"/>
			<point x="662" y="278" type="line"/>
			<point x="662" y="294"/>
			<point x="662" y="294"/>
			<point x="646" y="294" type="curve"/>
			<point x="612" y="294" type="line"/>
			<point x="604" y="294"/>
			<point x="604" y="294"/>
			<point x="604" y="302" type="curve"/>
			<point x="604" y="728" type="line"/>
			<point x="604" y="744"/>
			<point x="604" y="744"/>
			<point x="588" y="744" type="curve"/>
			<point x="460" y="744" type="line"/>
			<point x="8" y="286" type="line"/>
			<point x="8" y="174" type="line"/>
			<point x="8" y="158"/>
			<point x="8" y="158"/>
			<point x="24" y="158" type="curve"/>
			<point x="420" y="158" type="line"/>
			<point x="428" y="158"/>
			<point x="428" y="158"/>
			<point x="428" y="150" type="curve"/>
			<point x="428" y="16" type="line"/>
		</contour>
		<contour>
			<point x="188" y="294" type="line"/>
			<point x="188" y="302" type="line"/>
			<point x="420" y="560" type="line"/>
			<point x="428" y="560" type="line"/>
			<point x="428" y="302" type="line"/>
			<point x="428" y="294"/>
			<point x="428" y="294"/>
			<point x="420" y="294" type="curve"/>
		</contour>
	</outline>
</glyph>
<glyph name="question" format="2">
	<unicode hex="003F"/>
	<advance width="600"/>
	<outline>
		<contour>
			<point x="220" y="192"/>
			<point x="220" y="192"/>
			<point x="236" y="192" type="curve"/>
			<point x="364" y="192" type="line"/>
			<point x="380" y="192"/>
			<point x="380" y="192"/>
			<point x="380" y="208" type="curve"/>
			<point x="380" y="384" type="line"/>
			<point x="380" y="488"/>
			<point x="544" y="472"/>
			<point x="544" y="576" type="curve"/>
			<point x="544" y="692"/>
			<point x="432" y="784"/>
			<point x="300" y="784" type="curve"/>
			<point x="168" y="784"/>
			<point x="56" y="692"/>
			<point x="56" y="576" type="curve"/>
			<point x="56" y="492"/>
			<point x="68" y="440"/>
			<point x="88" y="416" type="curve"/>
			<point x="72" y="400" type="line"/>
			<point x="72" y="480" type="line"/>
			<point x="88" y="496" type="line"/>
			<point x="128" y="540"/>
			<point x="216" y="528"/>
			<point x="216" y="576" type="curve"/>
			<point x="216" y="616"/>
			<point x="256" y="640"/>
			<point x="300" y="640" type="curve"/>
			<point x="344" y="640"/>
			<point x="384" y="616"/>
			<point x="384" y="576" type="curve"/>
			<point x="384" y="472"/>
			<point x="220" y="488"/>
			<point x="220" y="384" type="curve"/>
			<point x="220" y="208" type="line"/>
		</contour>
		<contour>
			<point x="236" y="0"/>
			<point x="236" y="0"/>
			<point x="252" y="0" type="curve"/>
			<point x="348" y="0" type="line"/>
			<point x="364" y="0"/>
			<point x="364" y="0"/>
			<point x="364" y="16" type="curve"/>
			<point x="364" y="112" type="line"/>
			<point x="364" y="128"/>
			<point x="364" y="128"/>
			<point x="348" y="128" type="curve"/>
			<point x="252" y="128" type="line"/>
			<point x="236" y="128"/>
			<point x="236" y="128"/>
			<point x="236" y="112" type="curve"/>
			<point x="236" y="16" type="line"/>
		</contour>
	</outline>
</glyph>
<glyph name="E" format="2">
	<unicode hex="0045"/>
	<advance width="720"/>
	<outline>
		<contour>
			<point x="80" y="0"/>
			<point x="80" y="0"/>
			<point x="96" y="0" type="curve"/>
			<point x="672" y="0" type="line"/>
			<point x="688" y="0"/>
			<point x="688" y="0"/>
			<point x="688" y="16" type="curve"/>
			<point x="688" y="128" type="line"/>
			<point x="688" y="144"/>
			<point x="688" y="144"/>
			<point x="672" y="144" type="curve"/>
			<point x="288" y="144" type="line"/>
			<point x="280" y="144"/>
			<point x="280" y="144"/>
			<point x="280" y="152" type="curve"/>
			<point x="280" y="310" type="line"/>
			<point x="280" y="318"/>
			<point x="280" y="318"/>
			<point x="288" y="318" type="curve"/>
			<point x="624" y="318" type="line"/>
			<point x="640" y="318"/>
			<point x="640" y="318"/>
			<point x="640" y="334" type="curve"/>
			<point x="640" y="454" type="line"/>
			<point x="640" y="470"/>
			<point x="640" y="470"/>
			<point x="624" y="470" type="curve"/>
			<point x="288" y="470" type="line"/>
			<point x="280" y="470"/>
			<point x="280" y="470"/>
			<point x="280" y="478" type="curve"/>
			<point x="280" y="624" type="line"/>
			<point x="280" y="632"/>
			<point x="280" y="632"/>
			<point x="288" y="632" type="curve"/>
			<point x="656" y="632" type="line"/>
			<point x="672" y="632"/>
			<point x="672" y="632"/>
			<point x="672" y="648" type="curve"/>
			<point x="672" y="752" type="line"/>
			<point x="672" y="768"/>
			<point x="672" y="768"/>
			<point x="656" y="768" type="curve"/>
			<point x="96" y="768" type="line"/>
			<point x="80" y="768"/>
			<point x="80" y="768"/>
			<point x="80" y="752" type="curve"/>
			<point x="80" y="16" type="line"/>
		</contour>
	</outline>
</glyph>
<glyph name="F" format="2">
	<unicode hex="0046"/>
	<advance width="664"/>
	<outline>
		<contour>
			<point x="80" y="0"/>
			<point x="80" y="0"/>
			<point x="96" y="0" type="curve"/>
			<point x="264" y="0" type="line"/>
			<point x="280" y="0"/>
			<point x="280" y="0"/>
			<point x="280" y="16" type="curve"/>
			<point x="280" y="310" type="line"/>
			<point x="280" y="318"/>
			<point x="280" y="318"/>
			<point x="288" y="318" type="curve"/>
			<point x="560" y="318" type="line"/>
			<point x="576" y="318"/>
			<point x="576" y="318"/>
			<point x="576" y="334" type="curve"/>
			<point x="576" y="454" type="line"/>
			<point x="576" y="470"/>
			<point x="576" y="470"/>
			<point x="560" y="470" type="curve"/>
			<point x="288" y="470" type="line"/>
			<point x="280" y="470"/>
			<point x="280" y="470"/>
			<point x="280" y="478" type="curve"/>
			<point x="280" y="624" type="line"/>
			<point x="280" y="632"/>
			<point x="280" y="632"/>
			<point x="288" y="632" type="curve"/>
			<point x="624" y="632" type="line"/>
			<point x="640" y="632"/>
			<point x="640" y="632"/>
			<point x="640" y="648" type="curve"/>
			<point x="640" y="752" type="line"/>
			<point x="640" y="768"/>
			<point x="640" y="768"/>
			<point x="624" y="768" type="curve"/>
			<point x="96" y="768" type="line"/>
			<point x="80" y="768"/>
			<point x="80" y="768"/>
			<point x="80" y="752" type="curve"/>
			<point x="80" y="16" type="line"/>
		</contour>
	</outline>
</glyph>
<glyph name="H" format="2">
	<unicode hex="0048"/>
	<advance width="816"/>
	<outline>
		<contour>
			<point x="80" y="0"/>
			<point x="80" y="0"/>
			<point x="96" y="0" type="curve"/>
			<point x="264" y="0" type="line"/>
			<point x="280" y="0"/>
			<point x="280" y="0"/>
			<point x="280" y="16" type="curve"/>
			<point x="280" y="312" type="line"/>
			<point x="280" y="320"/>
			<point x="280" y="320"/>
			<point x="288" y="320" type="curve"/>
			<point x="528" y="320" type="line"/>
			<point x="536" y="320"/>
			<point x="536" y="320"/>
			<point x="536" y="312" type="curve"/>
			<point x="536" y="16" type="line"/>
			<point x="536" y="0"/>
			<point x="536" y="0"/>
			<point x="552" y="0" type="curve"/>
			<point x="720" y="0" type="line"/>
			<point x="736" y="0"/>
			<point x="736" y="0"/>
			<point x="736" y="16" type="curve"/>
			<point x="736" y="752" type="line"/>
			<point x="736" y="768"/>
			<point x="736" y="768"/>
			<point x="720" y="768" type="curve"/>
			<point x="552" y="768" type="line"/>
			<point x="536" y="768"/>
			<point x="536" y="768"/>
			<point x="536" y="752" type="curve"/>
			<point x="536" y="488" type="line"/>
			<point x="536" y="480"/>
			<point x="536" y="480"/>
			<point x="528" y="480" type="curve"/>
			<point x="288" y="480" type="line"/>
			<point x="280" y="480"/>
			<point x="280" y="480"/>
			<point x="280" y="488" type="curve"/>
			<point x="280" y="752" type="line"/>
			<point x="280" y="768"/>
			<point x="280" y="768"/>
			<point x="264" y="768" type="curve"/>
			<point x="96" y="768" type="line"/>
			<point x="80" y="768"/>
			<point x="80" y="768"/>
			<point x="80" y="752" type="curve"/>
			<point x="80" y="16" type="line"/>
		</contour>
	</outline>
</glyph>
<glyph name="I" format="2">
	<unicode hex="0049"/>
	<advance width="360"/>
	<outline>
		<contour>
			<point x="80" y="0"/>
			<point x="80" y="0"/>
			<point x="96" y="0" type="curve"/>
			<point x="264" y="0" type="line"/>
			<point x="280" y="0"/>
			<point x="280" y="0"/>
			<point x="280" y="16" type="curve"/>
			<point x="280" y="752" type="line"/>
			<point x="280" y="768"/>
			<point x="280" y="768"/>
			<point x="264" y="768" type="curve"/>
			<point x="96" y="768" type="line"/>
			<point x="80" y="768"/>
			<point x="80" y="768"/>
			<point x="80" y="752" type="curve"/>
			<point x="80" y="16" type="line"/>
		</contour>
	</outline>
</glyph>
<glyph name="K" format="2">
	<unicode hex="004B"/>
	<advance width="724"/>
	<outline>
		<contour>
			<point x="80" y="0"/>
			<point x="80" y="0"/>
			<point x="96" y="0" type="curve"/>
			<point x="264" y="0" type="line"/>
			<point x="280" y="0"/>
			<point x="280" y="0"/>
			<point x="280" y="16" type="curve"/>
			<point x="280" y="240" type="line"/>
			<point x="280" y="324"/>
			<point x="280" y="324"/>
			<point x="364" y="324" type="curve"/>
			<point x="372" y="324" type="line"/>
			<point x="610" y="0" type="line"/>
			<point x="692" y="0" type="line"/>
			<point x="708" y="0"/>
			<point x="708" y="0"/>
			<point x="708" y="16" type="curve"/>
			<point x="708" y="64" type="line"/>
			<point x="446" y="416" type="line"/>
			<point x="446" y="424" type="line"/>
			<point x="664" y="704" type="line"/>
			<point x="664" y="752" type="line"/>
			<point x="664" y="768"/>
			<point x="664" y="768"/>
			<point x="648" y="768" type="curve"/>
			<point x="564" y="768" type="line"/>
			<point x="280" y="768"/>
			<point x="280" y="768"/>
			<point x="288" y="444" type="curve"/>
			<point x="280" y="444" type="line"/>
			<point x="280" y="752" type="line"/>
			<point x="280" y="768"/>
			<point x="280" y="768"/>
			<point x="264" y="768" type="curve"/>
			<point x="96" y="768" type="line"/>
			<point x="80" y="768"/>
			<point x="80" y="768"/>
			<point x="80" y="752" type="curve"/>
			<point x="80" y="16" type="line"/>
		</contour>
	</outline>
</glyph>
<glyph name="L" format="2">
	<unicode hex="004C"/>
	<advance width="656"/>
	<outline>
		<contour>
			<point x="80" y="0"/>
			<point x="80" y="0"/>
			<point x="96" y="0" type="curve"/>
			<point x="616" y="0" type="line"/>
			<point x="632" y="0"/>
			<point x="632" y="0"/>
			<point x="632" y="16" type="curve"/>
			<point x="632" y="128" type="line"/>
			<point x="632" y="144"/>
			<point x="632" y="144"/>
			<point x="616" y="144" type="curve"/>
			<point x="288" y="144" type="line"/>
			<point x="280" y="144"/>
			<point x="280" y="144"/>
			<point x="280" y="152" type="curve"/>
			<point x="280" y="752" type="line"/>
			<point x="280" y="768"/>
			<point x="280" y="768"/>
			<point x="264" y="768" type="curve"/>
			<point x="96" y="768" type="line"/>
			<point x="80" y="768"/>
			<point x="80" y="768"/>
			<point x="80" y="752" type="curve"/>
			<point x="80" y="16" type="line"/>
		</contour>
	</outline>
</glyph>
<glyph name="T" format="2">
	<unicode hex="0054"/>
	<advance width="632"/>
	<outline>
		<contour>
			<point x="204" y="0"/>
			<point x="204" y="0"/>
			<point x="220" y="0" type="curve"/>
			<point x="412" y="0" type="line"/>
			<point x="428" y="0"/>
			<point x="428" y="0"/>
			<point x="428" y="16" type="curve"/>
			<point x="428" y="624" type="line"/>
			<point x="428" y="632"/>
			<point x="428" y="632"/>
			<point x="436" y="632" type="curve"/>
			<point x="600" y="632" type="line"/>
			<point x="616" y="632"/>
			<point x="616" y="632"/>
			<point x="616" y="648" type="curve"/>
			<point x="616" y="752" type="line"/>
			<point x="616" y="768"/>
			<point x="616" y="768"/>
			<point x="600" y="768" type="curve"/>
			<point x="32" y="768" type="line"/>
			<point x="16" y="768"/>
			<point x="16" y="768"/>
			<point x="16" y="752" type="curve"/>
			<point x="16" y="648" type="line"/>
			<point x="16" y="632"/>
			<point x="16" y="632"/>
			<point x="32" y="632" type="curve"/>
			<point x="196" y="632" type="line"/>
			<point x="204" y="632"/>
			<point x="204" y="632"/>
			<point x="204" y="624" type="curve"/>
			<point x="204" y="16" type="line"/>
		</contour>
	</outline>
</glyph>
<glyph name="d" format="2">
	<unicode hex="0064"/>
	<advance width="592"/>
	<outline>
		<contour>
			<point x="540" y="0" type="line"/>
			<point x="556" y="0"/>
			<point x="556" y="0"/>
			<point x="556" y="16" type="curve"/>
			<point x="556" y="752" type="line"/>
			<point x="556" y="768"/>
			<point x="556" y="768"/>
			<point x="540" y="768" type="curve"/>
			<point x="420" y="768" type="line"/>
			<point x="404" y="768"/>
			<point x="404" y="768"/>
			<point x="404" y="752" type="curve"/>
			<point x="404" y="484" type="line"/>
			<point x="396" y="484" type="line"/>
			<point x="372" y="532"/>
			<point x="322" y="566"/>
			<point x="258" y="566" type="curve"/>
			<point x="114" y="566"/>
			<point x="4" y="464"/>
			<point x="4" y="288" type="curve"/>
			<point x="4" y="112"/>
			<point x="110" y="-16"/>
			<point x="254" y="-16" type="curve"/>
			<point x="318" y="-16"/>
			<point x="374" y="24"/>
			<point x="398" y="72" type="curve"/>
			<point x="406" y="72" type="line"/>
			<point x="406" y="16" type="line"/>
			<point x="406" y="0"/>
			<point x="406" y="0"/>
			<point x="422" y="0" type="curve"/>
		</contour>
		<contour>
			<point x="284" y="448" type="curve"/>
			<point x="364" y="448"/>
			<point x="410" y="376"/>
			<point x="410" y="280" type="curve" smooth="yes"/>
			<point x="410" y="184"/>
			<point x="352" y="105.99999999999999"/>
			<point x="278" y="106" type="curve" smooth="yes"/>
			<point x="212" y="106.00000000000001"/>
			<point x="152" y="170"/>
			<point x="152" y="276" type="curve" smooth="yes"/>
			<point x="152" y="382"/>
			<point x="202" y="448"/>
		</contour>
	</outline>
</glyph>
<glyph name="e" format="2">
	<unicode hex="0065"/>
	<advance width="520"/>
	<outline>
		<contour>
			<point x="138" y="336" type="line"/>
			<point x="130" y="336"/>
			<point x="130" y="336"/>
			<point x="130" y="344" type="curve"/>
			<point x="130" y="382"/>
			<point x="182" y="440"/>
			<point x="238" y="440" type="curve"/>
			<point x="306" y="440"/>
			<point x="362" y="382"/>
			<point x="362" y="344" type="curve"/>
			<point x="354" y="336" type="line"/>
		</contour>
		<contour>
			<point x="238" y="-16" type="curve"/>
			<point x="402" y="-16"/>
			<point x="484" y="80"/>
			<point x="504" y="156" type="curve"/>
			<point x="484" y="176" type="line"/>
			<point x="366" y="174" type="line"/>
			<point x="358" y="166" type="line"/>
			<point x="334" y="132"/>
			<point x="322" y="104"/>
			<point x="268" y="104" type="curve"/>
			<point x="212" y="104"/>
			<point x="138" y="172"/>
			<point x="130" y="232" type="curve"/>
			<point x="138" y="240" type="line"/>
			<point x="486" y="240" type="line"/>
			<point x="502" y="240"/>
			<point x="502" y="240"/>
			<point x="502" y="256" type="curve"/>
			<point x="502" y="304" type="line"/>
			<point x="504" y="462"/>
			<point x="426" y="560"/>
			<point x="248" y="560" type="curve"/>
			<point x="80" y="560"/>
			<point x="-6" y="464"/>
			<point x="-6" y="288" type="curve"/>
			<point x="-6" y="112"/>
			<point x="70" y="-16"/>
		</contour>
	</outline>
</glyph>
<glyph name="g" format="2">
	<unicode hex="0067"/>
	<advance width="568"/>
	<outline>
		<contour>
			<point x="512" y="0" type="line" smooth="yes"/>
			<point x="544" y="0"/>
			<point x="552" y="8"/>
			<point x="552" y="40" type="curve" smooth="yes"/>
			<point x="552" y="512" type="line" smooth="yes"/>
			<point x="552" y="544"/>
			<point x="544" y="552"/>
			<point x="512" y="552" type="curve" smooth="yes"/>
			<point x="448" y="552" type="line" smooth="yes"/>
			<point x="416" y="552"/>
			<point x="408" y="544"/>
			<point x="408" y="512" type="curve" smooth="yes"/>
			<point x="408" y="506" type="line" smooth="yes"/>
			<point x="408" y="492"/>
			<point x="396.9464550485728" y="489.85838243407983"/>
			<point x="388" y="502" type="curve" smooth="yes"/>
			<point x="360" y="540"/>
			<point x="312" y="564"/>
			<point x="256" y="564" type="curve" smooth="yes"/>
			<point x="120" y="564"/>
			<point x="8" y="456"/>
			<point x="8" y="280" type="curve" smooth="yes"/>
			<point x="8" y="136"/>
			<point x="104" y="16"/>
			<point x="248" y="16" type="curve" smooth="yes"/>
			<point x="312" y="16"/>
			<point x="359.80062112400304" y="45.06749483200406"/>
			<point x="392" y="88" type="curve" smooth="yes"/>
			<point x="398" y="96"/>
			<point x="408" y="96"/>
			<point x="408" y="84" type="curve" smooth="yes"/>
			<point x="408" y="40" type="line" smooth="yes"/>
			<point x="408" y="8"/>
			<point x="416" y="0"/>
			<point x="448" y="0" type="curve" smooth="yes"/>
		</contour>
		<contour>
			<point x="288" y="440" type="curve" smooth="yes"/>
			<point x="368" y="440"/>
			<point x="410" y="376"/>
			<point x="410" y="280" type="curve" smooth="yes"/>
			<point x="410" y="216"/>
			<point x="362" y="142"/>
			<point x="288" y="142" type="curve" smooth="yes"/>
			<point x="216" y="142"/>
			<point x="156" y="192"/>
			<point x="156" y="280" type="curve" smooth="yes"/>
			<point x="156" y="386"/>
			<point x="206" y="440"/>
		</contour>
	</outline>
</glyph>
<glyph name="h" format="2">
	<unicode hex="0068"/>
	<advance width="528"/>
	<outline>
		<contour>
			<point x="16" y="8"/>
			<point x="24" y="0"/>
			<point x="56" y="0" type="curve" smooth="yes"/>
			<point x="120" y="0" type="line" smooth="yes"/>
			<point x="152" y="0"/>
			<point x="160" y="8"/>
			<point x="160" y="40" type="curve" smooth="yes"/>
			<point x="160" y="328" type="line" smooth="yes"/>
			<point x="160" y="392"/>
			<point x="200" y="440"/>
			<point x="264" y="440" type="curve" smooth="yes"/>
			<point x="328" y="440"/>
			<point x="368" y="400"/>
			<point x="368" y="336" type="curve" smooth="yes"/>
			<point x="368" y="40" type="line" smooth="yes"/>
			<point x="368" y="8"/>
			<point x="376" y="0"/>
			<point x="408" y="0" type="curve" smooth="yes"/>
			<point x="472" y="0" type="line" smooth="yes"/>
			<point x="504" y="0"/>
			<point x="512" y="8"/>
			<point x="512" y="40" type="curve" smooth="yes"/>
			<point x="512" y="376" type="line" smooth="yes"/>
			<point x="512" y="480"/>
			<point x="448" y="564"/>
			<point x="320" y="564" type="curve" smooth="yes"/>
			<point x="248" y="564"/>
			<point x="201.2924944936232" y="533.3054906812416"/>
			<point x="178" y="496" type="curve" smooth="yes"/>
			<point x="170.81039494546232" y="484.4850570883556"/>
			<point x="160" y="488"/>
			<point x="160" y="500" type="curve" smooth="yes"/>
			<point x="160" y="728" type="line" smooth="yes"/>
			<point x="160" y="760"/>
			<point x="152" y="768"/>
			<point x="120" y="768" type="curve" smooth="yes"/>
			<point x="56" y="768" type="line" smooth="yes"/>
			<point x="24" y="768"/>
			<point x="16" y="760"/>
			<point x="16" y="728" type="curve" smooth="yes"/>
			<point x="16" y="40" type="line" smooth="yes"/>
		</contour>
	</outline>
</glyph>
<glyph name="i" format="2">
	<unicode hex="0069"/>
	<advance width="176"/>
	<outline>
		<contour>
			<point x="16" y="632"/>
			<point x="23.999999999999993" y="624"/>
			<point x="56" y="624" type="curve" smooth="yes"/>
			<point x="120" y="624" type="line" smooth="yes"/>
			<point x="152" y="624"/>
			<point x="160" y="632"/>
			<point x="160" y="664" type="curve" smooth="yes"/>
			<point x="160" y="728" type="line" smooth="yes"/>
			<point x="160" y="760"/>
			<point x="152" y="768"/>
			<point x="120" y="768" type="curve" smooth="yes"/>
			<point x="56" y="768" type="line" smooth="yes"/>
			<point x="24" y="768"/>
			<point x="16" y="760"/>
			<point x="16" y="728" type="curve" smooth="yes"/>
			<point x="16" y="664" type="line" smooth="yes"/>
		</contour>
		<contour>
			<point x="16" y="8"/>
			<point x="24" y="0"/>
			<point x="56" y="0" type="curve" smooth="yes"/>
			<point x="120" y="0" type="line" smooth="yes"/>
			<point x="152" y="0"/>
			<point x="160" y="8"/>
			<point x="160" y="40" type="curve" smooth="yes"/>
			<point x="160" y="512" type="line" smooth="yes"/>
			<point x="160" y="544"/>
			<point x="152" y="552"/>
			<point x="120" y="552" type="curve" smooth="yes"/>
			<point x="56" y="552" type="line" smooth="yes"/>
			<point x="24" y="552"/>
			<point x="16" y="544.0000000000001"/>
			<point x="16" y="512" type="curve" smooth="yes"/>
			<point x="16" y="40" type="line" smooth="yes"/>
		</contour>
	</outline>
</glyph>
<glyph name="k" format="2">
	<unicode hex="006B"/>
	<advance width="576"/>
	<outline>
		<contour>
			<point x="64" y="8"/>
			<point x="72" y="0"/>
			<point x="96" y="0" type="curve" smooth="yes"/>
			<point x="176" y="0" type="line" smooth="yes"/>
			<point x="200" y="0"/>
			<point x="208" y="7.999999999999979"/>
			<point x="208" y="32" type="curve" smooth="yes"/>
			<point x="208" y="144" type="line" smooth="yes"/>
			<point x="208" y="156"/>
			<point x="208" y="162"/>
			<point x="224" y="180" type="curve" smooth="yes"/>
			<point x="256" y="216" type="line" smooth="yes"/>
			<point x="266.5203665587325" y="227.8354123785741"/>
			<point x="273.9517431759623" y="226.16107146438333"/>
			<point x="280" y="216" type="curve" smooth="yes"/>
			<point x="380" y="48" type="line" smooth="yes"/>
			<point x="406.1144434085368" y="4.127735073658265"/>
			<point x="412" y="0"/>
			<point x="448" y="0" type="curve" smooth="yes"/>
			<point x="520" y="0" type="line" smooth="yes"/>
			<point x="548.1245154965969" y="0"/>
			<point x="556.6583158835043" y="26.85316640638097"/>
			<point x="544" y="48" type="curve" smooth="yes"/>
			<point x="374" y="332" type="line"/>
			<point x="374" y="340" type="line"/>
			<point x="540" y="516" type="line" smooth="yes"/>
			<point x="558.369454144616" y="535.9002419900006"/>
			<point x="556" y="552"/>
			<point x="534" y="552" type="curve" smooth="yes"/>
			<point x="426" y="552" type="line" smooth="yes"/>
			<point x="404.7167607698858" y="552"/>
			<point x="394.0283788638533" y="547.5870876265036"/>
			<point x="380" y="532" type="curve" smooth="yes"/>
			<point x="236" y="372" type="line" smooth="yes"/>
			<point x="222.47132893545114" y="356.9681432616124"/>
			<point x="208" y="351.846606338756"/>
			<point x="208" y="376" type="curve" smooth="yes"/>
			<point x="208" y="736" type="line" smooth="yes"/>
			<point x="208" y="760"/>
			<point x="200" y="768"/>
			<point x="176" y="768" type="curve" smooth="yes"/>
			<point x="96" y="768" type="line" smooth="yes"/>
			<point x="72" y="768"/>
			<point x="64" y="760"/>
			<point x="64" y="736" type="curve" smooth="yes"/>
			<point x="64" y="32" type="line" smooth="yes"/>
		</contour>
	</outline>
</glyph>
<glyph name="l" format="2">
	<unicode hex="006C"/>
	<advance width="176"/>
	<outline>
		<contour>
			<point x="16" y="8"/>
			<point x="24" y="0"/>
			<point x="56" y="0" type="curve" smooth="yes"/>
			<point x="120" y="0" type="line" smooth="yes"/>
			<point x="152" y="0"/>
			<point x="160" y="8"/>
			<point x="160" y="40" type="curve" smooth="yes"/>
			<point x="160" y="728" type="line" smooth="yes"/>
			<point x="160" y="760"/>
			<point x="152" y="768"/>
			<point x="120" y="768" type="curve" smooth="yes"/>
			<point x="56" y="768" type="line" smooth="yes"/>
			<point x="24" y="768"/>
			<point x="16" y="760.0000000000001"/>
			<point x="16" y="728" type="curve" smooth="yes"/>
			<point x="16" y="40" type="line" smooth="yes"/>
		</contour>
	</outline>
</glyph>
<glyph name="n" format="2">
	<unicode hex="006E"/>
	<advance width="528"/>
	<outline>
		<contour>
			<point x="16" y="8"/>
			<point x="24" y="0"/>
			<point x="56" y="0" type="curve" smooth="yes"/>
			<point x="120" y="0" type="line" smooth="yes"/>
			<point x="152" y="0"/>
			<point x="160" y="8"/>
			<point x="160" y="40" type="curve" smooth="yes"/>
			<point x="160" y="328" type="line" smooth="yes"/>
			<point x="160" y="392"/>
			<point x="200" y="440"/>
			<point x="264" y="440" type="curve" smooth="yes"/>
			<point x="328" y="440"/>
			<point x="368" y="400"/>
			<point x="368" y="336" type="curve" smooth="yes"/>
			<point x="368" y="40" type="line" smooth="yes"/>
			<point x="368" y="8"/>
			<point x="376" y="0"/>
			<point x="408" y="0" type="curve" smooth="yes"/>
			<point x="472" y="0" type="line" smooth="yes"/>
			<point x="504" y="0"/>
			<point x="512" y="8"/>
			<point x="512" y="40" type="curve" smooth="yes"/>
			<point x="512" y="376" type="line" smooth="yes"/>
			<point x="512" y="480"/>
			<point x="448" y="564"/>
			<point x="320" y="564" type="curve" smooth="yes"/>
			<point x="250" y="564"/>
			<point x="203.2924944936232" y="533.3054906812416"/>
			<point x="178" y="496" type="curve" smooth="yes"/>
			<point x="170.38206810441605" y="484.7638331832912"/>
			<point x="160" y="488"/>
			<point x="160" y="500" type="curve" smooth="yes"/>
			<point x="160" y="512" type="line" smooth="yes"/>
			<point x="160" y="544"/>
			<point x="152" y="552"/>
			<point x="120" y="552" type="curve" smooth="yes"/>
			<point x="56" y="552" type="line" smooth="yes"/>
			<point x="24" y="552"/>
			<point x="16" y="544"/>
			<point x="16" y="512" type="curve" smooth="yes"/>
			<point x="16" y="40" type="line" smooth="yes"/>
		</contour>
	</outline>
</glyph>
<glyph name="r" format="2">
	<unicode hex="0072"/>
	<advance width="342"/>
	<outline>
		<contour>
			<point x="16" y="8"/>
			<point x="24" y="0"/>
			<point x="56" y="0" type="curve" smooth="yes"/>
			<point x="120" y="0" type="line" smooth="yes"/>
			<point x="152" y="0"/>
			<point x="160" y="8"/>
			<point x="160" y="40" type="curve" smooth="yes"/>
			<point x="160" y="288" type="line" smooth="yes"/>
			<point x="160" y="354"/>
			<point x="208.00000000000006" y="408"/>
			<point x="262" y="408" type="curve" smooth="yes"/>
			<point x="282" y="408"/>
			<point x="286" y="404"/>
			<point x="304" y="404" type="curve" smooth="yes"/>
			<point x="316" y="404"/>
			<point x="326" y="415.87548450340387"/>
			<point x="326" y="432" type="curve" smooth="yes"/>
			<point x="326" y="512" type="line" smooth="yes"/>
			<point x="326" y="542"/>
			<point x="316" y="552"/>
			<point x="294" y="552" type="curve" smooth="yes"/>
			<point x="242" y="552"/>
			<point x="203.2924944936232" y="533.3054906812416"/>
			<point x="178" y="496" type="curve" smooth="yes"/>
			<point x="170.38206810441605" y="484.7638331832912"/>
			<point x="160" y="488"/>
			<point x="160" y="500" type="curve" smooth="yes"/>
			<point x="160" y="512" type="line" smooth="yes"/>
			<point x="160" y="544"/>
			<point x="152" y="552"/>
			<point x="120" y="552" type="curve" smooth="yes"/>
			<point x="56" y="552" type="line" smooth="yes"/>
			<point x="24" y="552"/>
			<point x="16" y="544"/>
			<point x="16" y="512" type="curve" smooth="yes"/>
			<point x="16" y="40" type="line" smooth="yes"/>
		</contour>
	</outline>
</glyph>
<glyph name="u" format="2">
	<unicode hex="0075"/>
	<advance width="528"/>
	<outline>
		<contour>
			<point x="512" y="544"/>
			<point x="504" y="552"/>
			<point x="472" y="552" type="curve" smooth="yes"/>
			<point x="408" y="552" type="line" smooth="yes"/>
			<point x="376" y="552"/>
			<point x="368" y="544"/>
			<point x="368" y="512" type="curve" smooth="yes"/>
			<point x="368" y="224" type="line" smooth="yes"/>
			<point x="368" y="160"/>
			<point x="328" y="112.00000000000001"/>
			<point x="264" y="112.00000000000001" type="curve" smooth="yes"/>
			<point x="200" y="112.00000000000001"/>
			<point x="160" y="152.00000000000003"/>
			<point x="160" y="216.00000000000003" type="curve" smooth="yes"/>
			<point x="160.00000000000006" y="512" type="line" smooth="yes"/>
			<point x="160.00000000000006" y="544"/>
			<point x="152.00000000000006" y="552"/>
			<point x="120.00000000000006" y="552" type="curve" smooth="yes"/>
			<point x="56.00000000000006" y="552" type="line" smooth="yes"/>
			<point x="24" y="552"/>
			<point x="16" y="544"/>
			<point x="16" y="512" type="curve" smooth="yes"/>
			<point x="16" y="176.00000000000009" type="line" smooth="yes"/>
			<point x="16" y="72.00000000000009"/>
			<point x="79.99999999999994" y="-11.999999999999972"/>
			<point x="207.99999999999994" y="-11.999999999999979" type="curve" smooth="yes"/>
			<point x="271.99999999999994" y="-11.999999999999982"/>
			<point x="318.7075055063768" y="18.694509318758392"/>
			<point x="350" y="56.000000000000014" type="curve" smooth="yes"/>
			<point x="358.7242068427306" y="66.40060315865948"/>
			<point x="368" y="64.00000000000001"/>
			<point x="368" y="52.000000000000014" type="curve" smooth="yes"/>
			<point x="368" y="40.000000000000014" type="line" smooth="yes"/>
			<point x="368" y="8.00000000000001"/>
			<point x="376" y="0.000000000000010658141036401503"/>
			<point x="408" y="0.000000000000008881784197001252" type="curve" smooth="yes"/>
			<point x="472" y="0.000000000000005329070518200751" type="line" smooth="yes"/>
			<point x="504" y="0.0000000000000017763568394002505"/>
			<point x="512" y="8.000000000000004"/>
			<point x="512" y="40" type="curve" smooth="yes"/>
			<point x="512" y="512" type="line" smooth="yes"/>
		</contour>
		<contour>
			<point x="82" y="632"/>
			<point x="90" y="624"/>
			<point x="122" y="624" type="curve" smooth="yes"/>
			<point x="186" y="624" type="line" smooth="yes"/>
			<point x="218" y="624"/>
			<point x="226" y="632"/>
			<point x="226" y="664" type="curve" smooth="yes"/>
			<point x="226" y="728" type="line" smooth="yes"/>
			<point x="226" y="760"/>
			<point x="218" y="768"/>
			<point x="186" y="768" type="curve" smooth="yes"/>
			<point x="122" y="768" type="line" smooth="yes"/>
			<point x="90" y="768"/>
			<point x="82" y="760"/>
			<point x="82" y="728" type="curve" smooth="yes"/>
			<point x="82" y="664" type="line" smooth="yes"/>
		</contour>
		<contour>
			<point x="314" y="632"/>
			<point x="322" y="624"/>
			<point x="354" y="624" type="curve" smooth="yes"/>
			<point x="418" y="624" type="line" smooth="yes"/>
			<point x="450" y="624"/>
			<point x="458" y="632"/>
			<point x="458" y="664" type="curve" smooth="yes"/>
			<point x="458" y="728" type="line" smooth="yes"/>
			<point x="458" y="760"/>
			<point x="450" y="768"/>
			<point x="418" y="768" type="curve" smooth="yes"/>
			<point x="354" y="768" type="line" smooth="yes"/>
			<point x="322" y="768"/>
			<point x="314" y="760"/>
			<point x="314" y="728" type="curve" smooth="yes"/>
			<point x="314" y="664" type="line" smooth="yes"/>
		</contour>
	</outline>
</glyph>
<glyph name="dieresis" format="2">
	<unicode hex="00A8"/>
	<advance width="400"/>
	<outline>
		<contour>
			<point x="24" y="616"/>
			<point x="24" y="616"/>
			<point x="40" y="616" type="curve"/>
			<point x="136" y="616" type="line"/>
			<point x="152" y="616"/>
			<point x="152" y="616"/>
			<point x="152" y="632" type="curve"/>
			<point x="152" y="728" type="line"/>
			<point x="152" y="744"/>
			<point x="152" y="744"/>
			<point x="136" y="744" type="curve"/>
			<point x="40" y="744" type="line"/>
			<point x="24" y="744"/>
			<point x="24" y="744"/>
			<point x="24" y="728" type="curve"/>
			<point x="24" y="632" type="line"/>
		</contour>
		<contour>
			<point x="248" y="616"/>
			<point x="248" y="616"/>
			<point x="264" y="616" type="curve"/>
			<point x="360" y="616" type="line"/>
			<point x="376" y="616"/>
			<point x="376" y="616"/>
			<point x="376" y="632" type="curve"/>
			<point x="376" y="728" type="line"/>
			<point x="376" y="744"/>
			<point x="376" y="744"/>
			<point x="360" y="744" type="curve"/>
			<point x="264" y="744" type="line"/>
			<point x="248" y="744"/>
			<point x="248" y="744"/>
			<point x="248" y="728" type="curve"/>
			<point x="248" y="632" type="line"/>
		</contour>
	</outline>
</glyph>
